<?xml version="1.0" standalone="no"?>
<!DOCTYPE svg PUBLIC "-//W3C//DTD SVG 20010904//EN"
 "http://www.w3.org/TR/2001/REC-SVG-20010904/DTD/svg10.dtd">
<svg version="1.0" xmlns="http://www.w3.org/2000/svg"
 width="564.000000pt" height="564.000000pt" viewBox="0 0 564.000000 564.000000"
 preserveAspectRatio="xMidYMid meet">

<g transform="translate(0.000000,564.000000) scale(0.100000,-0.100000)"
fill="#000000" stroke="none">
<path d="M3665 4898 c-200 -22 -475 -157 -576 -282 -65 -81 -113 -193 -113
-266 1 -45 7 -65 37 -113 19 -32 38 -76 42 -98 l7 -39 77 0 c70 0 81 -3 117
-30 23 -16 53 -47 68 -69 15 -22 34 -42 42 -45 9 -3 48 12 88 34 40 22 77 40
83 40 5 0 15 -23 22 -52 20 -89 52 -106 126 -67 31 17 43 19 57 10 81 -51 217
60 351 286 126 213 189 342 194 400 10 99 -51 209 -140 255 -85 43 -287 58
-482 36z m123 -25 c6 -19 -25 -16 -32 3 -4 11 -1 14 11 12 9 -2 18 -9 21 -15z
m-141 -24 c27 -10 27 -11 9 -25 -26 -18 -40 -18 -32 1 3 9 0 15 -9 15 -8 0
-15 5 -15 10 0 13 12 13 47 -1z m261 -5 c12 -8 22 -19 22 -23 0 -16 -33 -21
-44 -7 -6 8 -20 16 -30 18 -11 1 -21 9 -24 16 -6 18 49 15 76 -4z m-408 -29
c0 -8 7 -15 15 -15 8 0 15 -4 15 -10 0 -5 -11 -10 -25 -10 -14 0 -25 5 -25 10
0 6 -9 10 -20 10 -25 0 -26 17 -2 23 33 9 42 7 42 -8z m347 -38 c18 0 30 -4
27 -8 -2 -4 3 -12 11 -17 17 -9 23 -60 11 -81 -4 -6 -17 -10 -29 -10 -17 1
-18 2 -5 6 23 6 34 49 17 69 -7 8 -24 14 -38 12 -22 -3 -29 -12 -43 -58 -17
-51 -47 -90 -70 -90 -5 0 0 12 11 26 27 34 26 49 -1 68 -22 16 -22 16 15 16
32 0 37 3 37 24 0 16 -7 26 -21 29 -13 3 -18 10 -14 17 5 7 17 9 34 5 14 -4
40 -8 58 -8z m-249 -8 c-2 -6 -7 -10 -11 -10 -4 1 -16 1 -28 1 -11 0 -17 5
-14 10 8 14 58 13 53 -1z m82 -37 l22 -18 -26 -38 c-23 -35 -24 -40 -11 -59 8
-12 15 -27 15 -34 0 -14 -35 -50 -65 -65 -18 -10 -18 -8 3 14 30 33 28 64 -5
82 l-28 14 28 7 c51 13 59 69 11 81 -26 7 -31 19 -11 27 24 10 45 7 67 -11z
m-330 -2 c0 -5 -4 -10 -10 -10 -5 0 -10 5 -10 10 0 6 5 10 10 10 6 0 10 -4 10
-10z m495 -10 c3 -5 1 -10 -4 -10 -6 0 -11 5 -11 10 0 6 2 10 4 10 3 0 8 -4
11 -10z m-364 -21 c33 -12 59 -27 59 -33 -1 -6 -7 -37 -14 -68 -8 -31 -12 -59
-9 -61 10 -10 -37 -85 -64 -102 -15 -10 -39 -31 -53 -48 -24 -27 -26 -28 -27
-8 -1 11 3 20 10 18 6 -1 13 6 15 16 6 27 -26 32 -53 7 -18 -17 -27 -20 -43
-11 -20 11 -44 -4 -75 -49 -13 -19 -16 -19 -43 -5 -16 8 -35 15 -42 15 -25 0
-22 26 12 109 34 80 93 178 124 204 8 7 42 17 76 23 34 6 63 12 65 13 2 0 30
-9 62 -20z m559 -29 c0 -5 -5 -10 -11 -10 -5 0 -7 5 -4 10 3 6 8 10 11 10 2 0
4 -4 4 -10z m-320 -4 c0 -3 -4 -8 -10 -11 -5 -3 -10 -1 -10 4 0 6 5 11 10 11
6 0 10 -2 10 -4z m180 -60 c0 -7 -6 -19 -14 -25 -11 -9 -12 -6 -8 14 5 26 22
35 22 11z m-100 -106 c0 -10 -10 -24 -21 -31 -17 -9 -20 -8 -15 3 3 7 9 21 12
31 8 23 24 22 24 -3z m117 -35 c-4 -8 -13 -15 -22 -15 -13 0 -12 3 3 18 19 21
27 20 19 -3z m-837 5 c0 -5 -4 -10 -10 -10 -5 0 -10 5 -10 10 0 6 5 10 10 10
6 0 10 -4 10 -10z m564 1 c3 -5 -1 -14 -8 -20 -12 -10 -13 -8 -9 8 6 23 9 25
17 12z m-4 -81 c0 -5 -4 -10 -10 -10 -5 0 -10 5 -10 10 0 6 5 10 10 10 6 0 10
-4 10 -10z m40 -20 c0 -13 -7 -20 -20 -20 -19 0 -19 1 -2 19 22 25 22 25 22 1z
m-380 0 c0 -5 -4 -10 -10 -10 -5 0 -10 5 -10 10 0 6 5 10 10 10 6 0 10 -4 10
-10z m640 0 c0 -5 -5 -10 -11 -10 -5 0 -7 5 -4 10 3 6 8 10 11 10 2 0 4 -4 4
-10z m-130 -14 c0 -8 -7 -17 -16 -20 -25 -10 -30 2 -8 19 24 18 24 18 24 1z
m-300 -31 c-7 -8 -20 -15 -29 -15 -12 0 -10 5 9 20 28 21 39 18 20 -5z m-350
-50 c-7 -8 -17 -15 -23 -15 -6 0 -2 7 9 15 25 19 30 19 14 0z m130 0 c0 -11
-42 -25 -53 -18 -8 5 -2 10 18 14 17 4 31 7 33 8 1 0 2 -1 2 -4z m290 -15 c0
-5 -9 -14 -20 -20 -22 -12 -27 -1 -8 18 14 14 28 16 28 2z m129 -31 c-22 -13
-30 0 -11 19 14 14 18 15 20 3 2 -7 -2 -17 -9 -22z m-309 -4 c-7 -8 -17 -15
-23 -15 -5 0 -2 9 8 20 21 23 35 19 15 -5z m428 -16 c-24 -16 -29 -9 -11 15
14 19 19 21 21 9 2 -9 -2 -19 -10 -24z m-208 -55 c0 -3 -5 -14 -10 -25 -16
-28 -32 -23 -18 6 10 22 28 35 28 19z m100 -49 c-7 -8 -17 -15 -22 -15 -6 0
-5 7 2 15 7 8 17 15 22 15 6 0 5 -7 -2 -15z"/>
<path d="M3383 4678 c-26 -13 -40 -45 -25 -60 13 -13 62 2 75 24 12 19 3 48
-15 47 -7 0 -23 -5 -35 -11z m37 -33 c0 -8 -7 -15 -15 -15 -16 0 -20 12 -8 23
11 12 23 8 23 -8z"/>
<path d="M3282 4664 c-28 -19 -30 -54 -3 -54 23 0 36 16 21 25 -15 9 -2 25 21
25 11 0 17 5 14 10 -9 14 -27 12 -53 -6z"/>
<path d="M3450 4625 c-14 -17 -6 -50 10 -40 5 3 10 13 10 22 0 9 6 13 15 9 9
-3 15 0 15 9 0 19 -34 19 -50 0z"/>
<path d="M3330 4587 c-35 -18 -54 -58 -35 -73 8 -6 15 -23 15 -38 0 -16 6 -26
14 -26 9 0 12 7 9 20 -4 15 0 20 15 20 20 0 36 23 25 34 -4 3 -17 6 -30 6 -30
0 -30 18 0 22 14 2 23 11 25 26 4 25 -3 27 -38 9z"/>
<path d="M3209 4559 c-21 -21 -21 -40 -1 -46 12 -5 52 31 52 46 0 19 -32 19
-51 0z m26 -9 c3 -5 1 -10 -4 -10 -6 0 -11 5 -11 10 0 6 2 10 4 10 3 0 8 -4
11 -10z"/>
<path d="M3415 4536 c-12 -18 -13 -30 -5 -50 10 -26 10 -26 40 -11 37 19 45
36 30 64 -14 28 -46 27 -65 -3z"/>
<path d="M3183 4478 c-30 -14 -39 -46 -19 -66 14 -14 17 -14 36 3 11 10 20 31
20 47 0 30 -4 32 -37 16z m17 -32 c0 -3 -4 -8 -10 -11 -5 -3 -10 -1 -10 4 0 6
5 11 10 11 6 0 10 -2 10 -4z"/>
<path d="M1230 3315 c0 -19 36 -55 53 -54 6 0 21 4 31 8 16 6 12 11 -29 34
-56 32 -55 31 -55 12z"/>
<path d="M2230 3252 c0 -11 60 -32 94 -32 27 0 77 -33 118 -80 54 -60 96 -48
47 14 -13 16 -18 33 -14 46 5 14 2 20 -10 20 -8 0 -27 7 -40 16 -30 20 -195
33 -195 16z"/>
<path d="M2075 3174 c-21 -45 -12 -54 58 -54 57 0 61 15 16 59 -40 40 -53 39
-74 -5z"/>
<path d="M2052 3048 c-22 -22 -14 -48 14 -48 22 0 25 4 22 27 -3 30 -18 39
-36 21z"/>
<path d="M2693 2896 c23 -35 37 -38 37 -7 0 22 -19 41 -42 41 -15 0 -15 -3 5
-34z"/>
<path d="M3610 2920 c-17 -4 -21 -8 -12 -14 6 -4 16 -5 21 -1 5 3 13 0 17 -6
5 -8 3 -9 -7 -4 -12 8 -12 6 0 -8 19 -24 29 -21 23 8 -5 31 -10 34 -42 25z"/>
<path d="M4133 2799 l-2 -41 20 23 c11 13 17 29 14 37 -3 7 -5 16 -5 18 0 2
-6 4 -12 4 -8 0 -14 -16 -15 -41z"/>
<path d="M1702 2303 c-6 -3 -9 -9 -6 -15 4 -6 10 -5 15 3 7 11 9 10 9 -3 0
-10 6 -18 13 -18 6 0 37 -12 67 -25 l55 -26 -49 43 c-47 40 -74 51 -104 41z"/>
<path d="M2663 2271 c-6 -25 -23 -26 -64 -5 -17 8 -33 14 -35 11 -23 -22 159
-157 212 -157 13 0 15 6 9 38 -4 20 -8 57 -9 82 -1 37 -5 46 -23 48 -27 4 -36
-30 -17 -66 9 -18 10 -30 3 -37 -15 -15 -49 31 -49 66 0 34 -19 49 -27 20z"/>
<path d="M2200 2171 c0 -18 33 -96 44 -104 6 -4 -10 -6 -36 -5 -25 2 -46 7
-45 12 2 11 -36 31 -78 40 -25 5 -21 1 20 -23 90 -54 94 -54 162 -38 34 8 60
10 57 6 -3 -5 -1 -9 5 -9 5 0 18 -3 28 -6 14 -5 12 -1 -7 20 -19 19 -37 27
-70 29 -28 2 -45 8 -48 17 -3 13 -2 13 7 0 5 -8 13 -12 16 -8 10 10 -5 49 -16
42 -6 -3 -9 2 -7 12 2 11 -4 20 -14 22 -10 2 -18 -1 -18 -7z"/>
<path d="M3533 2120 c-42 -10 -83 -37 -83 -54 0 -7 14 -19 30 -26 37 -16 39
-30 3 -30 -16 -1 -41 -7 -58 -14 l-30 -12 28 -18 c23 -15 43 -18 132 -14 87 3
109 7 132 25 51 38 27 98 -52 134 -43 20 -53 21 -102 9z"/>
<path d="M1060 2101 c0 -13 342 -341 355 -341 5 0 -34 43 -87 95 -72 70 -96
99 -92 112 5 14 4 15 -4 4 -8 -10 -27 3 -87 63 -81 79 -85 82 -85 67z"/>
<path d="M1447 2039 c7 -7 15 -10 18 -7 3 3 -2 9 -12 12 -14 6 -15 5 -6 -5z"/>
<path d="M2435 2019 c17 -6 68 -29 113 -50 90 -42 96 -44 87 -30 -3 5 0 13 6
17 7 4 9 3 6 -2 -7 -13 2 -26 32 -46 20 -14 26 -15 37 -3 33 33 6 52 -121 88
-97 28 -217 47 -160 26z"/>
<path d="M940 1920 c0 -5 20 -32 45 -60 30 -34 50 -68 61 -108 15 -51 27 -68
128 -167 183 -182 416 -357 578 -435 42 -21 75 -40 73 -42 -3 -3 1 -5 8 -5 6
0 21 -4 32 -8 32 -13 -18 25 -143 108 -62 40 -109 77 -105 82 5 4 3 5 -3 2 -9
-5 -238 171 -264 202 -3 3 -44 41 -92 85 -48 43 -85 82 -82 87 3 5 0 8 -8 7
-7 -2 -12 3 -10 10 1 8 -1 11 -6 8 -14 -8 -47 33 -76 94 -37 80 -136 181 -136
140z"/>
<path d="M2790 1886 c0 -9 -8 -16 -17 -17 -10 0 -4 -5 12 -10 17 -5 38 -6 48
-3 20 6 23 34 3 34 -8 0 -21 3 -30 6 -11 4 -16 1 -16 -10z"/>
<path d="M1580 1668 c8 -9 42 -39 75 -68 33 -28 74 -64 90 -79 46 -43 158
-121 172 -121 7 0 10 6 7 13 -6 14 -89 77 -102 77 -5 0 -17 9 -27 20 -10 11
-23 20 -29 20 -6 0 -38 23 -71 51 -33 28 -69 59 -80 68 -12 9 -27 21 -35 26
-13 6 -12 5 0 -7z"/>
<path d="M1860 1652 c0 -7 35 -36 78 -66 72 -52 102 -66 102 -48 -1 6 -67 51
-130 87 -10 6 -25 17 -34 24 -10 9 -16 9 -16 3z"/>
<path d="M3652 1613 c18 -42 23 -46 39 -27 12 16 12 17 -3 11 -12 -4 -15 -2
-12 8 3 7 -4 18 -15 25 -20 10 -20 9 -9 -17z"/>
<path d="M1690 1523 c0 -4 38 -39 84 -76 60 -48 96 -70 123 -74 34 -5 27 2
-74 70 -140 94 -133 90 -133 80z"/>
<path d="M4087 1483 c-4 -3 -7 -17 -7 -30 0 -12 -6 -23 -12 -24 -7 -1 5 -7 27
-14 35 -10 41 -10 47 4 5 13 7 12 8 -4 1 -12 5 -6 10 15 10 39 3 54 -11 27
-14 -24 -28 -21 -35 8 -6 25 -15 31 -27 18z m23 -51 c0 -15 -2 -15 -10 -2 -13
20 -13 33 0 25 6 -3 10 -14 10 -23z"/>
<path d="M1621 1389 c23 -29 131 -96 167 -104 10 -2 37 -13 61 -25 51 -25 106
-36 114 -23 3 5 -20 18 -51 28 -74 24 -206 91 -272 138 -37 26 -45 20 -19 -14z"/>
<path d="M2092 1360 c0 -14 2 -19 5 -12 2 6 2 18 0 25 -3 6 -5 1 -5 -13z"/>
<path d="M2066 1325 c4 -8 10 -15 15 -15 4 0 6 7 3 15 -4 8 -10 15 -15 15 -4
0 -6 -7 -3 -15z"/>
<path d="M2530 1256 c0 -2 9 -6 20 -9 11 -3 18 -1 14 4 -5 9 -34 13 -34 5z"/>
<path d="M2591 1251 c-10 -7 -7 -9 12 -8 14 1 23 5 20 10 -6 9 -15 9 -32 -2z"/>
<path d="M2653 1243 c9 -2 25 -2 35 0 9 3 1 5 -18 5 -19 0 -27 -2 -17 -5z"/>
<path d="M2730 1240 c-13 -8 -13 -10 2 -10 9 0 20 5 23 10 8 13 -5 13 -25 0z"/>
<path d="M2465 1220 c3 -17 7 -17 54 3 l34 15 -45 -2 c-34 -1 -45 -5 -43 -16z"/>
<path d="M2770 1230 c-8 -5 -10 -10 -5 -10 6 0 17 5 25 10 8 5 11 10 5 10 -5
0 -17 -5 -25 -10z"/>
<path d="M2800 1220 c-8 -5 -10 -10 -5 -10 6 0 17 5 25 10 8 5 11 10 5 10 -5
0 -17 -5 -25 -10z"/>
<path d="M2423 1205 c0 -7 7 -11 15 -7 11 4 13 1 7 -8 -5 -9 -4 -11 3 -6 16
10 15 14 -6 25 -14 7 -19 6 -19 -4z"/>
<path d="M2830 1210 c-8 -5 -10 -10 -5 -10 6 0 17 5 25 10 8 5 11 10 5 10 -5
0 -17 -5 -25 -10z"/>
<path d="M2385 1190 c-4 -6 -1 -9 7 -8 7 2 12 -2 11 -9 -2 -7 4 -10 13 -6 8 3
14 6 12 7 -2 1 -10 7 -20 14 -11 9 -18 10 -23 2z"/>
<path d="M2337 1155 c-15 -14 -27 -23 -27 -20 0 3 -10 -1 -22 -9 -24 -17 -33
-57 -11 -49 10 4 11 9 2 19 -8 9 -8 14 -1 14 6 0 14 -4 17 -10 4 -6 13 -5 25
2 12 8 15 15 8 19 -7 4 -3 11 10 18 18 10 21 9 16 -4 -8 -19 3 -19 22 0 14 13
14 15 -1 15 -11 0 -15 5 -11 15 7 20 5 19 -27 -10z m-23 -33 c3 -5 -1 -9 -9
-9 -8 0 -12 4 -9 9 3 4 7 8 9 8 2 0 6 -4 9 -8z"/>
<path d="M2915 1170 c27 -12 43 -12 25 0 -8 5 -22 9 -30 9 -10 0 -8 -3 5 -9z"/>
<path d="M1887 1159 c7 -7 15 -10 18 -7 3 3 -2 9 -12 12 -14 6 -15 5 -6 -5z"/>
<path d="M2970 1152 c8 -5 26 -13 40 -16 17 -5 20 -4 10 2 -8 5 -26 13 -40 16
-17 5 -20 4 -10 -2z"/>
<path d="M2210 1080 c-19 -11 -28 -19 -20 -19 8 0 26 8 40 19 31 25 25 25 -20
0z"/>
<path d="M3380 1096 c0 -2 7 -7 16 -10 8 -3 12 -2 9 4 -6 10 -25 14 -25 6z"/>
<path d="M1890 1086 c0 -12 60 -35 130 -49 64 -13 78 -13 100 -2 18 10 20 14
8 15 -9 0 -20 -4 -23 -10 -3 -5 -11 -10 -16 -10 -6 0 -7 4 -4 10 3 5 0 7 -9 4
-19 -7 -122 14 -158 32 -16 8 -28 12 -28 10z"/>
<path d="M2173 1043 c-13 -2 -23 -8 -23 -12 0 -5 11 -6 25 -3 14 2 25 8 25 13
0 5 -1 8 -2 8 -2 -1 -13 -4 -25 -6z"/>
<path d="M3510 1040 c8 -5 20 -10 25 -10 6 0 3 5 -5 10 -8 5 -19 10 -25 10 -5
0 -3 -5 5 -10z"/>
<path d="M3437 1009 c7 -7 15 -10 18 -7 3 3 -2 9 -12 12 -14 6 -15 5 -6 -5z"/>
<path d="M3995 891 c-3 -5 -2 -12 3 -15 29 -18 788 -339 932 -394 275 -105
310 -116 294 -91 -4 7 8 3 26 -7 18 -10 38 -27 44 -36 15 -25 26 -22 26 7 0
17 -9 31 -30 44 -16 10 -28 20 -26 22 2 2 -5 4 -17 5 -35 2 -376 138 -370 148
4 5 1 6 -5 2 -14 -9 -323 105 -316 116 3 4 -2 5 -10 2 -8 -3 -43 6 -78 19 -60
24 -126 48 -360 132 -59 21 -105 42 -102 47 3 4 3 8 0 8 -3 0 -7 -4 -11 -9z"/>
<path d="M3930 860 c8 -5 20 -10 25 -10 6 0 3 5 -5 10 -8 5 -19 10 -25 10 -5
0 -3 -5 5 -10z"/>
<path d="M4574 829 c-2 -5 18 -20 45 -34 52 -26 415 -149 603 -205 182 -54
144 -26 -49 36 -100 32 -181 60 -179 61 3 4 310 -87 359 -106 29 -11 39 2 10
14 -43 17 -382 130 -530 175 -178 55 -251 72 -259 59z"/>
<path d="M4482 802 c-9 -7 -8 -13 8 -27 15 -14 19 -26 15 -45 -3 -15 -2 -20 3
-13 6 10 27 5 88 -21 190 -79 723 -263 792 -273 37 -5 42 -3 42 14 0 53 -60
80 -515 233 -192 65 -363 123 -378 129 -33 13 -38 13 -55 3z"/>
<path d="M4399 658 c-8 -27 -5 -36 9 -30 10 4 12 7 4 10 -7 2 -10 8 -6 13 3 5
3 9 0 9 -3 0 -6 -1 -7 -2z"/>
<path d="M4137 639 c7 -7 15 -10 18 -7 3 3 -2 9 -12 12 -14 6 -15 5 -6 -5z"/>
<path d="M4296 621 c18 -16 837 -352 848 -348 13 5 4 9 -314 145 -443 189
-573 238 -534 203z"/>
<path d="M4265 607 c11 -8 75 -38 142 -67 67 -29 121 -56 119 -59 -2 -3 6 -7
17 -7 12 -1 134 -49 271 -108 227 -97 317 -130 241 -89 -58 31 -740 325 -785
338 -24 7 -24 6 -5 -8z"/>
<path d="M4550 557 c229 -113 478 -214 629 -256 72 -20 76 -21 87 -21 4 0 1
-7 -6 -15 -12 -14 -24 -14 -67 2 -7 3 -13 1 -13 -5 0 -5 12 -13 28 -17 23 -6
24 -8 8 -14 -17 -7 -16 -9 8 -24 14 -10 46 -20 71 -24 52 -7 67 11 41 49 -23
33 -20 45 17 57 37 13 77 52 77 77 0 12 -7 10 -30 -10 -37 -31 -74 -38 -165
-33 -56 3 -99 15 -215 61 -127 51 -228 97 -177 82 11 -4 16 -2 12 5 -4 6 -14
8 -23 4 -21 -8 -174 54 -165 68 3 6 1 7 -6 3 -6 -4 -46 6 -87 23 -110 44 -124
37 -24 -12z"/>
<path d="M5415 559 c-7 -10 5 -26 47 -70 26 -27 32 -81 14 -117 -15 -29 -15
-30 8 -36 13 -3 26 -15 29 -26 8 -33 23 -23 46 29 43 100 17 156 -96 214 -38
20 -40 20 -48 6z"/>
</g>
</svg>
