<?xml version="1.0" standalone="no"?>
<!DOCTYPE svg PUBLIC "-//W3C//DTD SVG 20010904//EN"
 "http://www.w3.org/TR/2001/REC-SVG-20010904/DTD/svg10.dtd">
<svg version="1.0" xmlns="http://www.w3.org/2000/svg"
 width="564.000000pt" height="797.000000pt" viewBox="0 0 564.000000 797.000000"
 preserveAspectRatio="xMidYMid meet">

<g transform="translate(0.000000,797.000000) scale(0.100000,-0.100000)"
fill="#000000" stroke="none">
<path d="M4948 7673 c6 -2 18 -2 25 0 6 3 1 5 -13 5 -14 0 -19 -2 -12 -5z"/>
<path d="M5160 7627 c0 -2 15 -16 33 -33 l32 -29 -29 33 c-28 30 -36 37 -36
29z"/>
<path d="M4938 7473 c-20 -24 -52 -77 -50 -83 2 -10 -42 -50 -54 -50 -25 0
-27 23 -4 42 26 21 13 25 -16 4 -15 -12 -17 -18 -8 -33 18 -30 49 -27 74 6 12
17 30 31 42 31 17 0 19 -4 13 -27 -12 -45 -11 -66 5 -71 12 -4 13 -3 2 10 -10
12 -8 27 13 82 14 36 25 75 25 86 0 25 -22 26 -42 3z m32 -7 c0 -28 -20 -66
-34 -66 -24 0 -26 14 -4 48 21 34 38 42 38 18z"/>
<path d="M5009 7433 c-9 -2 -24 -23 -33 -46 -23 -61 -19 -70 7 -18 12 25 28
47 36 49 14 5 13 -5 -4 -65 -3 -10 3 1 14 25 22 45 59 62 45 20 -17 -51 -12
-61 32 -64 45 -2 51 1 74 31 12 17 10 16 -11 -2 -29 -27 -45 -29 -52 -8 -4 9
4 19 21 27 33 16 42 48 14 48 -14 0 -26 -14 -41 -45 -24 -50 -48 -62 -36 -17
13 47 11 57 -10 57 -11 1 -25 3 -30 6 -6 3 -17 4 -26 2z m151 -22 c0 -5 -7
-11 -15 -15 -15 -5 -20 5 -8 17 9 10 23 9 23 -2z"/>
<path d="M5291 7403 c7 -12 15 -20 18 -17 3 2 -3 12 -13 22 -17 16 -18 16 -5
-5z"/>
<path d="M5260 7393 c0 -6 8 -17 18 -24 16 -13 16 -13 2 6 -8 11 -16 22 -17
24 -2 2 -3 0 -3 -6z"/>
<path d="M2883 6800 c-83 -17 -162 -73 -217 -154 -40 -59 -86 -187 -86 -241 0
-59 -77 -155 -125 -155 -22 0 -19 -12 16 -66 17 -27 50 -78 73 -114 32 -51 52
-70 91 -90 28 -14 52 -26 53 -27 2 -1 -8 -22 -22 -46 -108 -183 -64 -662 94
-1042 24 -57 41 -114 40 -134 0 -18 6 -41 13 -50 9 -10 16 -52 20 -118 6 -100
5 -103 -34 -215 -22 -62 -52 -146 -66 -185 -13 -40 -46 -108 -72 -150 -26 -43
-69 -114 -96 -158 -27 -44 -56 -91 -65 -105 -37 -55 -100 -212 -106 -265 -12
-101 38 -176 137 -206 36 -10 122 -3 152 13 32 17 29 2 -7 -32 -38 -37 -51
-71 -37 -98 16 -29 -22 -78 -65 -85 -31 -5 -43 -1 -86 33 -89 71 -161 78 -191
20 -15 -29 -18 -60 -18 -185 1 -82 -2 -176 -5 -208 -4 -36 -1 -69 6 -87 10
-24 9 -33 -8 -57 -11 -15 -59 -90 -106 -167 l-87 -139 24 -26 c13 -14 39 -53
57 -86 19 -33 42 -71 52 -85 75 -102 92 -127 93 -144 3 -36 27 -40 96 -18 341
109 998 338 1013 353 19 17 19 24 8 151 -41 459 -43 486 -34 544 12 71 2 97
-44 119 -24 11 -34 23 -34 39 0 13 -7 29 -15 36 -8 7 -15 18 -15 25 0 28 -42
65 -81 71 -21 4 -39 12 -39 18 -1 6 -16 29 -35 51 -33 39 -34 39 -102 37 -37
0 -76 -3 -87 -4 -13 -2 -20 4 -22 20 -7 43 -35 83 -69 99 -30 14 -41 15 -82 4
-96 -25 -100 -25 -127 2 -45 45 -37 73 88 324 62 126 125 261 140 301 32 89
66 254 66 319 0 27 4 53 9 59 5 5 21 38 35 74 15 35 38 74 51 85 14 11 27 30
29 41 3 12 27 53 54 91 154 216 302 518 363 739 12 46 23 124 26 185 l5 107
38 11 c20 6 44 11 53 11 23 0 56 37 79 88 11 24 40 64 65 90 64 66 86 99 112
162 52 128 47 219 -15 266 -44 34 -94 39 -228 24 -83 -9 -121 -10 -151 -1 -48
13 -117 68 -170 134 -54 69 -160 154 -220 176 -65 24 -129 32 -182 21z m134
-40 c86 -20 165 -81 287 -223 31 -36 68 -66 103 -83 53 -26 56 -27 186 -19
165 10 193 8 223 -11 48 -32 43 -149 -10 -261 -44 -91 -86 -138 -158 -174 -32
-16 -58 -32 -58 -34 0 -3 18 4 40 15 22 11 40 19 40 16 0 -2 -12 -24 -26 -50
-29 -52 -58 -70 -125 -80 l-45 -7 -12 48 c-16 62 -62 134 -104 166 -47 35
-191 66 -173 37 3 -5 24 -10 46 -10 53 0 100 -21 139 -62 49 -51 71 -102 83
-198 9 -73 8 -105 -7 -196 -33 -205 -132 -456 -269 -684 -41 -69 -124 -190
-143 -209 -2 -2 -12 3 -22 12 -25 23 -96 36 -139 27 -46 -11 -47 -10 -107 141
-167 421 -175 849 -21 1058 70 95 182 151 277 137 24 -3 53 -6 66 -6 12 0 22
-4 22 -8 0 -4 14 -8 32 -9 24 -2 29 0 20 9 -9 9 -7 18 11 37 l22 25 -36 -26
c-41 -31 -49 -28 -49 17 0 21 -11 44 -33 71 -19 21 -39 48 -45 59 -6 11 -12
15 -12 8 0 -6 18 -34 41 -63 29 -36 39 -59 37 -78 -3 -27 -3 -27 -78 -24 -86
4 -137 -11 -208 -59 -43 -29 -49 -30 -72 -17 -36 20 -87 100 -110 175 -27 89
-26 174 5 271 64 202 209 302 382 262z m-414 -492 c9 -66 73 -185 117 -217 37
-27 38 -28 20 -51 -14 -18 -23 -22 -46 -16 -41 11 -91 51 -121 99 -14 23 -41
65 -59 94 -35 54 -35 56 6 66 14 3 33 20 43 37 24 40 33 38 40 -12z m360
-1507 c31 -12 57 -38 57 -57 0 -12 -5 -11 -26 5 -33 26 -109 28 -142 5 -21
-14 -22 -14 -22 7 0 12 8 28 18 35 20 16 80 18 115 5z m-14 -62 c21 -8 30 -16
27 -26 -3 -7 -13 -39 -22 -69 -9 -31 -18 -53 -22 -50 -3 3 -14 -1 -24 -10 -16
-16 -18 -15 -25 4 -5 11 -12 21 -18 21 -16 1 -19 122 -3 132 18 12 49 11 87
-2z m-55 -185 c21 -8 20 -45 -4 -154 -35 -157 -104 -310 -246 -545 -113 -189
-129 -226 -129 -313 0 -71 1 -75 33 -103 36 -32 77 -37 171 -19 112 21 151
-49 75 -133 -37 -41 -37 -57 2 -57 35 0 29 -17 -8 -23 -76 -11 -88 31 -27 93
38 38 40 43 25 58 -14 14 -22 15 -78 2 -92 -22 -202 -19 -229 6 -50 45 -72
134 -49 204 l8 25 2 -25 c1 -14 6 -1 11 29 13 74 34 118 137 283 49 78 99 161
110 183 31 63 150 384 163 443 7 28 14 52 15 52 1 0 9 -3 18 -6z m-17 -291
c-28 -94 -87 -234 -140 -336 -140 -265 -155 -299 -150 -349 6 -55 39 -98 76
-98 14 0 44 7 67 15 63 22 107 19 135 -10 35 -34 31 -50 -4 -24 -31 23 -55 23
-186 -1 l-50 -9 55 4 c30 3 75 8 100 11 37 5 50 2 73 -16 38 -30 39 -104 2
-148 -14 -17 -25 -35 -25 -40 0 -12 -39 -27 -48 -18 -3 4 6 19 20 34 58 61 60
120 7 147 -25 13 -41 14 -114 3 -75 -10 -89 -10 -119 5 -88 42 -65 197 55 374
16 23 29 44 29 47 0 2 23 44 51 93 59 101 143 276 160 334 7 21 14 37 16 35 3
-2 -2 -26 -10 -53z m216 -882 c14 -14 -6 -98 -29 -121 -12 -12 -14 -9 -14 31
0 44 -26 89 -50 89 -6 0 -10 5 -10 11 0 15 87 6 103 -10z m-177 -27 c-4 -9 -9
-15 -11 -12 -3 3 -3 13 1 22 4 9 9 15 11 12 3 -3 3 -13 -1 -22z m15 -57 c-11
-17 -34 -45 -51 -62 -25 -24 -33 -27 -40 -16 -13 22 -2 42 54 96 40 40 52 46
54 32 2 -9 -6 -32 -17 -50z m89 53 c14 -14 20 -33 20 -68 0 -36 -5 -54 -20
-67 -11 -10 -20 -24 -20 -31 0 -8 19 7 41 31 40 44 64 52 52 17 -3 -9 -18 -30
-33 -47 -15 -16 -32 -39 -38 -50 l-11 -20 -7 20 c-4 11 -13 24 -21 28 -19 11
-16 42 7 87 22 44 25 68 9 90 -9 12 -10 10 -5 -9 2 -13 -4 -46 -15 -73 -23
-58 -24 -97 -4 -104 20 -8 19 -24 -2 -24 -21 0 -53 29 -53 48 0 8 13 36 29 61
19 29 31 62 32 89 3 47 10 51 39 22z m-245 0 c4 -6 -9 -29 -29 -50 -36 -40
-47 -82 -24 -96 8 -5 6 -10 -8 -14 -26 -10 -44 7 -44 42 0 21 10 38 35 61 19
17 35 39 35 49 0 19 25 25 35 8z m355 -54 c-15 -15 -34 9 -26 31 7 17 8 17 22
-1 9 -13 11 -23 4 -30z m-189 -48 c-17 -27 -31 -57 -31 -67 0 -26 22 -50 55
-60 29 -9 28 -9 -13 -10 -33 -1 -49 5 -67 24 -14 13 -25 30 -25 38 0 13 28 55
58 85 7 8 20 28 29 45 14 26 18 29 21 14 2 -11 -10 -41 -27 -69z m290 16 c11
-9 19 -27 19 -39 0 -13 7 -25 15 -29 16 -6 21 -46 6 -46 -12 0 -36 39 -45 72
-5 21 -15 30 -46 38 -22 6 -40 16 -40 22 0 16 69 2 91 -18z m-64 -26 c15 -19
24 -78 13 -78 -6 0 -10 -8 -10 -18 0 -11 -9 -27 -20 -37 -10 -9 -18 -20 -17
-24 1 -3 -11 -32 -27 -63 -16 -33 -26 -67 -23 -78 8 -30 -9 -24 -22 8 -16 37
-2 73 39 102 17 12 29 25 26 28 -3 2 -12 0 -20 -7 -25 -21 -24 10 2 67 19 41
23 63 18 93 -6 37 -5 39 12 30 10 -5 23 -16 29 -23z m34 2 c10 -6 19 -21 19
-33 0 -13 5 -28 12 -35 9 -9 7 -12 -9 -12 -16 0 -23 8 -28 33 -4 17 -12 38
-17 45 -13 15 -3 16 23 2z m-106 -100 c-14 -28 -23 -59 -20 -69 3 -11 -1 -24
-11 -32 -14 -11 -18 -11 -30 6 -21 28 -17 58 11 96 14 19 35 50 47 69 l23 35
3 -27 c2 -14 -9 -50 -23 -78z m-241 30 c9 -50 39 -70 101 -70 51 0 55 -2 55
-23 0 -13 9 -33 20 -45 11 -11 17 -28 14 -36 -12 -31 7 -66 53 -101 31 -23 57
-35 79 -35 32 0 134 46 134 61 0 12 31 40 39 35 4 -3 8 -26 9 -53 2 -26 12
-142 22 -258 23 -244 25 -299 8 -312 -7 -6 -94 -38 -193 -71 -188 -63 -728
-249 -804 -276 -48 -18 -71 -21 -55 -8 12 11 79 37 324 126 113 41 268 98 345
127 77 28 169 62 205 76 36 13 84 32 108 43 41 20 42 21 41 68 0 59 -29 152
-51 165 -19 13 -84 -11 -314 -115 -83 -37 -167 -71 -185 -74 -19 -4 -63 -26
-99 -49 -36 -23 -86 -47 -111 -53 -25 -6 -77 -30 -115 -52 -38 -22 -72 -40
-77 -40 -4 0 -40 -16 -79 -35 -39 -20 -76 -34 -82 -32 -10 3 82 67 116 80 10
3 42 21 70 40 68 42 361 187 458 225 42 17 111 48 155 70 44 22 109 52 145 67
91 38 102 50 95 100 -9 59 -34 111 -59 123 -19 8 -49 -3 -189 -73 -91 -46
-176 -86 -189 -90 -13 -4 -63 -31 -113 -60 -49 -28 -135 -74 -190 -100 -55
-27 -134 -67 -175 -90 -41 -23 -86 -46 -100 -50 -14 -4 -51 -20 -83 -36 -48
-23 -59 -26 -63 -14 -4 9 38 81 100 176 l106 160 34 -20 c42 -26 62 -26 104
-1 18 11 48 20 68 20 26 0 43 8 66 30 16 17 33 30 38 30 18 0 70 53 70 70 0
11 12 25 27 32 39 19 60 60 46 90 -5 13 -14 36 -19 52 -5 16 -18 34 -28 40
-11 6 -39 31 -63 55 l-44 43 24 37 c14 20 33 37 43 38 29 1 114 20 120 26 12
12 32 -6 38 -33z m-458 -10 c55 -24 140 -93 149 -121 4 -10 8 -40 10 -65 2
-38 -3 -55 -27 -91 -23 -34 -27 -47 -18 -57 8 -11 8 -16 -1 -21 -6 -4 -14 -3
-18 3 -4 6 -17 9 -29 5 -15 -4 -19 -9 -13 -17 6 -7 4 -16 -5 -24 -12 -10 -14
-10 -14 2 0 9 -6 13 -14 10 -8 -3 -29 2 -45 12 -25 15 -33 28 -42 73 -22 104
-11 311 16 311 2 0 25 -9 51 -20z m883 -26 c3 -3 8 -29 11 -57 5 -50 6 -52 38
-55 19 -2 32 -9 32 -17 0 -22 -50 -55 -85 -55 -45 0 -60 21 -46 61 15 44 14
82 -4 105 -14 18 -14 17 -4 -8 10 -22 9 -40 -1 -84 -13 -55 -13 -57 9 -75 13
-11 34 -19 48 -19 34 0 19 -18 -22 -26 -25 -4 -43 -1 -60 10 -35 23 -40 56
-16 104 12 23 21 55 21 71 0 51 9 64 43 57 17 -3 33 -9 36 -12z m63 -26 c17
-13 21 -28 19 -60 -2 -28 -18 -21 -18 7 0 14 -9 35 -18 45 -20 22 -8 27 17 8z
m-173 -88 c-27 -63 -19 -97 29 -121 25 -13 29 -18 16 -23 -45 -17 -98 6 -115
50 -11 30 6 74 53 141 28 38 34 42 36 25 2 -11 -7 -44 -19 -72z m-521 47 c18
-14 15 -24 -10 -30 -20 -6 -76 27 -77 45 -1 9 71 -3 87 -15z m680 6 c12 -22 5
-43 -14 -43 -9 0 -14 11 -14 30 0 33 14 40 28 13z m-634 -52 c3 -5 -1 -14 -9
-21 -8 -7 -15 -20 -14 -29 0 -11 3 -9 9 7 10 23 53 31 65 12 21 -35 14 -59
-27 -95 -28 -23 -34 -32 -18 -24 14 6 35 21 48 32 l22 20 0 -31 c0 -45 -42
-75 -95 -69 -22 3 -34 3 -27 0 18 -7 14 -21 -9 -28 -11 -4 -18 -9 -16 -12 3
-2 19 3 36 11 16 9 32 16 36 16 12 0 3 -25 -17 -47 -26 -27 -82 -31 -116 -7
-44 30 -18 74 44 74 25 0 26 1 11 13 -21 15 -13 26 37 57 22 13 34 26 28 28
-7 2 -12 9 -12 16 0 8 -9 25 -20 39 -11 14 -20 30 -20 36 0 13 56 15 64 2z
m-86 -53 c-5 -15 -23 -11 -26 6 -2 11 2 14 13 10 9 -4 14 -11 13 -16z m40 -49
c-2 -6 -8 -10 -13 -10 -5 0 -11 4 -13 10 -2 6 4 11 13 11 9 0 15 -5 13 -11z
m-43 -29 c-3 -5 -10 -10 -16 -10 -5 0 -9 5 -9 10 0 6 7 10 16 10 8 0 12 -4 9
-10z m-45 -41 c0 -5 -7 -9 -15 -9 -15 0 -20 12 -9 23 8 8 24 -1 24 -14z m-250
-49 c-18 -11 -24 -6 -16 16 5 14 9 15 19 5 9 -9 9 -14 -3 -21z m935 7 c8 -13
17 -37 19 -53 2 -16 7 -37 11 -47 4 -10 2 -24 -6 -33 -11 -13 -150 -84 -166
-84 -3 0 -35 -15 -72 -33 -36 -19 -97 -46 -136 -62 -103 -42 -402 -192 -541
-272 l-121 -69 -35 57 c-56 90 -56 92 4 121 29 14 63 29 76 32 12 4 58 27 102
52 44 24 83 44 87 44 3 0 27 13 52 28 25 15 70 38 99 50 29 12 72 34 95 49 23
16 70 42 105 58 35 17 134 65 220 107 86 43 165 78 174 78 10 0 24 -10 33 -23z
m-895 -11 c0 -2 -7 -20 -15 -41 -9 -20 -13 -45 -10 -56 10 -29 -14 -23 -26 7
-14 40 7 94 37 94 8 0 14 -2 14 -4z m38 -32 c5 -9 12 -15 15 -15 21 3 27 -1
27 -17 0 -11 9 -27 21 -38 l21 -19 -24 -6 -23 -7 25 -1 c24 -2 24 -2 6 -16
-50 -37 -116 4 -116 73 0 53 29 81 48 46z m148 -6 l28 -22 -25 -8 c-14 -4 -5
-5 24 -2 51 6 58 -3 26 -32 -28 -26 -104 -23 -132 4 -25 26 -17 69 16 75 12 2
25 5 28 6 4 0 19 -9 35 -21z m794 -247 c30 -102 28 -123 -17 -148 -21 -12 -69
-32 -108 -46 -38 -13 -162 -58 -275 -101 -113 -42 -257 -95 -320 -118 -63 -22
-152 -56 -197 -73 l-82 -33 -11 27 c-5 14 -22 42 -36 61 l-25 35 134 65 c75
36 141 71 149 77 7 5 35 15 62 22 26 7 75 30 108 52 32 22 82 46 111 54 29 8
97 35 152 61 114 54 304 132 322 133 7 1 21 -30 33 -68z"/>
<path d="M2726 6552 c9 -37 54 -135 59 -130 4 4 -9 36 -53 128 -12 24 -12 24
-6 2z"/>
<path d="M2796 6397 c3 -10 9 -15 12 -12 3 3 0 11 -7 18 -10 9 -11 8 -5 -6z"/>
<path d="M3578 6243 c7 -3 16 -2 19 1 4 3 -2 6 -13 5 -11 0 -14 -3 -6 -6z"/>
<path d="M3476 6215 c-64 -27 -160 -85 -152 -92 3 -3 21 7 41 23 20 15 73 42
118 60 45 19 75 34 67 33 -8 0 -42 -11 -74 -24z"/>
<path d="M2442 3460 c0 -19 2 -27 5 -17 2 9 2 25 0 35 -3 9 -5 1 -5 -18z"/>
<path d="M2562 3515 c0 -16 2 -22 5 -12 2 9 2 23 0 30 -3 6 -5 -1 -5 -18z"/>
<path d="M2580 3451 c0 -6 4 -13 10 -16 6 -3 7 1 4 9 -7 18 -14 21 -14 7z"/>
<path d="M1864 5237 c-30 -28 -37 -42 -41 -83 -12 -121 105 -392 174 -402 31
-5 117 98 169 203 58 117 69 201 32 255 -35 52 -59 60 -186 60 l-112 0 -36
-33z m240 -9 c3 -7 7 -25 10 -40 5 -21 12 -28 31 -28 31 0 32 13 3 33 -13 9
-18 16 -11 16 21 1 44 -30 37 -51 -4 -14 -2 -18 5 -14 16 10 14 -13 -8 -82
-32 -99 -121 -252 -154 -265 -51 -20 -141 155 -153 299 l-7 71 29 8 c16 5 31
8 34 7 3 0 7 9 7 20 1 12 8 25 15 29 22 14 158 11 162 -3z m-189 -18 c-3 -5
-10 -10 -16 -10 -5 0 -9 5 -9 10 0 6 7 10 16 10 8 0 12 -4 9 -10z m-30 -20 c3
-5 1 -10 -4 -10 -6 0 -11 5 -11 10 0 6 2 10 4 10 3 0 8 -4 11 -10z"/>
<path d="M1664 4837 c-86 -64 -161 -148 -194 -219 -33 -70 -37 -105 -16 -146
24 -46 48 -59 161 -87 127 -31 146 -28 192 31 27 37 28 40 27 158 -1 174 -40
306 -90 306 -12 0 -48 -20 -80 -43z m84 -26 c32 -20 64 -230 44 -296 -5 -17
-20 -36 -35 -43 -15 -7 -27 -20 -27 -29 0 -14 3 -13 21 3 15 14 20 15 17 4 -5
-24 -31 -41 -41 -27 -6 9 -10 9 -14 0 -6 -17 -45 -16 -115 3 -54 16 -58 19
-58 47 0 31 -24 67 -44 67 -6 0 -4 -5 4 -11 13 -9 13 -10 0 -6 -56 15 88 216
204 284 25 15 27 15 44 4z m-219 -351 c0 -10 -3 -8 -9 5 -12 27 -12 43 0 25 5
-8 9 -22 9 -30z"/>
<path d="M1990 1723 c-124 -13 -200 -50 -200 -96 0 -36 51 -96 122 -143 51
-34 68 -51 68 -68 0 -46 42 -89 134 -137 265 -140 932 -290 1173 -264 63 6 71
10 108 50 36 38 47 43 100 50 77 9 119 27 140 59 16 24 16 28 -2 63 -66 127
-468 305 -918 406 -282 64 -575 96 -725 80z m374 -53 c537 -76 1136 -287 1220
-431 l19 -32 -26 -23 c-42 -36 -123 -47 -292 -41 -246 11 -489 55 -818 148
-400 115 -690 278 -626 355 39 47 279 58 523 24z m-194 -298 c338 -136 862
-252 1137 -252 80 0 88 -8 51 -47 -20 -21 -30 -23 -128 -23 -351 0 -923 145
-1152 293 -46 29 -58 42 -58 63 0 17 4 24 13 21 6 -3 68 -28 137 -55z"/>
<path d="M2024 1631 c-63 -16 -70 -36 -25 -74 26 -22 137 -73 199 -92 44 -13
21 11 -27 28 -27 9 -63 31 -80 49 l-31 32 32 14 c60 25 261 14 419 -22 32 -8
59 -10 59 -6 0 31 -466 92 -546 71z m31 -31 c13 -6 15 -9 5 -9 -8 0 -22 4 -30
9 -18 12 -2 12 25 0z"/>
<path d="M3310 1313 c0 -5 15 -15 34 -21 45 -16 53 -39 20 -54 -25 -12 -47
-10 -354 18 -82 7 -10 -13 104 -30 263 -39 424 -4 284 62 -57 27 -88 35 -88
25z"/>
</g>
</svg>
